<svg width="1469" height="234" viewBox="0 0 1469 234" fill="none" xmlns="http://www.w3.org/2000/svg">
<path d="M159 211C86.1568 140.636 120.858 40.5709 198 12L159 211Z" fill="#34D399"/>
<path d="M198 12C270.651 82.3267 235.984 182.398 159 211L198 12Z" fill="#34D399"/>
<path d="M198 13.0001L159 210" stroke="#34D399" stroke-width="2"/>
<rect x="179.695" y="21.8907" width="33" height="175.394" transform="rotate(11.31 179.695 21.8907)" fill="#34D399"/>
<path d="M138.669 12.3901L99.8432 210.5C63.7573 175.44 54.3353 133.069 63.4983 95.8872C72.6578 58.7199 100.391 26.7238 138.669 12.3901Z" fill="#6366F1" stroke="#6366F1" stroke-width="0.5"/>
<path d="M139 12.0001C211.652 82.3268 176.984 182.398 100 211L139 12.0001Z" fill="#6366F1"/>
<path d="M139 13.0001L99.9998 210" stroke="#6366F1" stroke-width="2"/>
<rect x="120.695" y="21.8904" width="33" height="175.394" transform="rotate(11.31 120.695 21.8904)" fill="#6366F1"/>
<path d="M41 211C-31.8432 140.636 2.85803 40.5709 80.0001 12.0001L41 211Z" fill="#7C3AED"/>
<path d="M79.9999 11.9999C152.651 82.3266 117.984 182.398 40.9999 211L79.9999 11.9999Z" fill="#7C3AED"/>
<path d="M79.9999 13.0001L41 210" stroke="#7C3AED" stroke-width="2"/>
<rect x="60.6952" y="21.8904" width="33" height="175.394" transform="rotate(11.31 60.6952 21.8904)" fill="#7C3AED"/>
<rect x="60.6952" y="21.8904" width="33" height="175.394" transform="rotate(11.31 60.6952 21.8904)" fill="#7C3AED"/>
<rect x="60.6952" y="21.8904" width="33" height="175.394" transform="rotate(11.31 60.6952 21.8904)" fill="#7C3AED"/>
<g filter="url(#filter0_i_135_920)">
<path d="M386.999 185.26C377.356 185.26 368.693 183.678 361.009 180.514C353.325 177.199 346.771 172.679 341.347 166.954C335.923 161.078 331.704 154.449 328.691 147.066C325.828 139.683 324.397 131.924 324.397 123.788C324.397 112.639 326.883 102.469 331.855 93.278C336.977 83.9367 344.209 76.4787 353.551 70.904C362.892 65.3293 373.966 62.542 386.773 62.542C399.579 62.542 410.578 65.3293 419.769 70.904C428.959 76.4787 435.815 83.786 440.335 92.826L410.729 101.866C408.167 97.4967 404.777 94.182 400.559 91.922C396.34 89.5113 391.669 88.306 386.547 88.306C380.821 88.306 375.548 89.8127 370.727 92.826C366.056 95.6887 362.365 99.832 359.653 105.256C356.941 110.529 355.585 116.707 355.585 123.788C355.585 130.719 356.941 136.896 359.653 142.32C362.515 147.593 366.282 151.812 370.953 154.976C375.623 157.989 380.821 159.496 386.547 159.496C390.163 159.496 393.553 158.893 396.717 157.688C400.031 156.483 402.969 154.825 405.531 152.716C408.092 150.607 409.975 148.196 411.181 145.484L440.787 154.524C438.075 160.4 434.082 165.673 428.809 170.344C423.686 175.015 417.584 178.706 410.503 181.418C403.572 183.979 395.737 185.26 386.999 185.26ZM513.009 185.26C503.367 185.26 494.703 183.678 487.019 180.514C479.335 177.199 472.781 172.679 467.357 166.954C462.084 161.229 458.016 154.675 455.153 147.292C452.291 139.909 450.859 132.15 450.859 124.014C450.859 115.727 452.291 107.893 455.153 100.51C458.016 93.1273 462.084 86.5733 467.357 80.848C472.781 75.1227 479.335 70.678 487.019 67.514C494.703 64.1993 503.367 62.542 513.009 62.542C522.652 62.542 531.24 64.1993 538.773 67.514C546.457 70.678 553.011 75.1227 558.435 80.848C563.859 86.5733 567.927 93.1273 570.64 100.51C573.502 107.893 574.933 115.727 574.933 124.014C574.933 132.15 573.502 139.909 570.64 147.292C567.927 154.675 563.859 161.229 558.435 166.954C553.162 172.679 546.683 177.199 538.999 180.514C531.315 183.678 522.652 185.26 513.009 185.26ZM482.047 124.014C482.047 130.945 483.403 137.122 486.115 142.546C488.827 147.819 492.519 151.963 497.189 154.976C501.86 157.989 507.133 159.496 513.009 159.496C518.735 159.496 523.933 157.989 528.603 154.976C533.274 151.812 536.966 147.593 539.678 142.32C542.54 136.896 543.972 130.719 543.972 123.788C543.972 117.008 542.54 110.906 539.678 105.482C536.966 100.058 533.274 95.8393 528.603 92.826C523.933 89.8127 518.735 88.306 513.009 88.306C507.133 88.306 501.86 89.888 497.189 93.052C492.519 96.0653 488.827 100.284 486.115 105.708C483.403 110.981 482.047 117.083 482.047 124.014ZM705.436 183H675.152V116.556C675.152 107.064 673.495 100.133 670.18 95.764C666.865 91.3947 662.27 89.21 656.394 89.21C652.326 89.21 648.183 90.2647 643.964 92.374C639.896 94.4833 636.205 97.4213 632.89 101.188C629.575 104.804 627.165 109.023 625.658 113.844V183H595.374V64.576H622.72V86.498C625.733 81.3753 629.575 77.0813 634.246 73.616C638.917 70 644.265 67.288 650.292 65.48C656.469 63.5213 662.948 62.542 669.728 62.542C677.111 62.542 683.137 63.898 687.808 66.61C692.629 69.1713 696.245 72.712 698.656 77.232C701.217 81.6013 702.95 86.5733 703.854 92.148C704.909 97.7227 705.436 103.373 705.436 109.098V183ZM761.648 183L718.03 64.576H749.444L779.276 155.428L809.334 64.576H838.036L794.644 183H761.648ZM904.984 185.26C895.492 185.26 886.904 183.678 879.22 180.514C871.536 177.199 864.982 172.755 859.558 167.18C854.134 161.455 849.915 154.976 846.902 147.744C844.039 140.361 842.608 132.602 842.608 124.466C842.608 113.166 845.094 102.845 850.066 93.504C855.188 84.1627 862.42 76.7047 871.762 71.13C881.254 65.4047 892.403 62.542 905.21 62.542C918.167 62.542 929.241 65.4047 938.432 71.13C947.622 76.7047 954.628 84.1627 959.45 93.504C964.422 102.695 966.908 112.639 966.908 123.336C966.908 125.144 966.832 127.027 966.682 128.986C966.531 130.794 966.38 132.301 966.23 133.506H874.7C875.302 139.533 877.035 144.806 879.898 149.326C882.911 153.846 886.678 157.311 891.198 159.722C895.868 161.982 900.84 163.112 906.114 163.112C912.14 163.112 917.79 161.681 923.064 158.818C928.488 155.805 932.179 151.887 934.138 147.066L960.128 154.298C957.265 160.325 953.122 165.673 947.698 170.344C942.424 175.015 936.172 178.706 928.94 181.418C921.708 183.979 913.722 185.26 904.984 185.26ZM874.022 114.296H935.946C935.343 108.269 933.61 103.071 930.748 98.702C928.036 94.182 924.42 90.7167 919.9 88.306C915.38 85.7447 910.332 84.464 904.758 84.464C899.334 84.464 894.362 85.7447 889.842 88.306C885.472 90.7167 881.856 94.182 878.994 98.702C876.282 103.071 874.624 108.269 874.022 114.296ZM1055.87 90.792C1046.68 90.792 1038.47 92.6 1031.23 96.216C1024 99.6813 1018.8 104.729 1015.64 111.358V183H985.357V64.576H1013.15V89.888C1017.37 81.752 1022.72 75.3487 1029.2 70.678C1035.68 66.0073 1042.53 63.446 1049.77 62.994C1051.42 62.994 1052.7 62.994 1053.61 62.994C1054.51 62.994 1055.27 63.0693 1055.87 63.22V90.792ZM1117.98 183.678C1110.15 183.678 1102.91 182.171 1096.29 179.158C1089.81 175.994 1084.16 171.625 1079.34 166.05C1074.66 160.475 1071.05 154.072 1068.49 146.84C1065.93 139.608 1064.65 131.924 1064.65 123.788C1064.65 115.2 1066 107.215 1068.71 99.832C1071.43 92.4493 1075.19 85.9707 1080.01 80.396C1084.99 74.6707 1090.79 70.3013 1097.42 67.288C1104.2 64.124 1111.65 62.542 1119.79 62.542C1128.98 62.542 1137.04 64.6513 1143.97 68.87C1150.9 72.938 1156.63 78.4373 1161.15 85.368V64.576H1187.59V177.35C1187.59 189.102 1184.73 199.121 1179 207.408C1173.43 215.845 1165.67 222.249 1155.72 226.618C1145.78 231.138 1134.48 233.398 1121.82 233.398C1109.02 233.398 1098.17 231.213 1089.28 226.844C1080.39 222.625 1072.78 216.599 1066.45 208.764L1082.95 192.718C1087.47 198.293 1093.12 202.662 1099.9 205.826C1106.83 208.99 1114.14 210.572 1121.82 210.572C1128.3 210.572 1134.18 209.367 1139.45 206.956C1144.88 204.696 1149.17 201.08 1152.33 196.108C1155.65 191.287 1157.31 185.034 1157.31 177.35V162.434C1153.39 169.214 1147.81 174.487 1140.58 178.254C1133.5 181.87 1125.97 183.678 1117.98 183.678ZM1128.15 159.496C1131.47 159.496 1134.63 158.969 1137.64 157.914C1140.66 156.859 1143.44 155.428 1146.01 153.62C1148.57 151.812 1150.83 149.703 1152.79 147.292C1154.74 144.731 1156.25 142.169 1157.31 139.608V111.358C1155.5 106.687 1152.94 102.619 1149.62 99.154C1146.46 95.6887 1142.84 93.052 1138.77 91.244C1134.86 89.2853 1130.71 88.306 1126.34 88.306C1121.67 88.306 1117.45 89.2853 1113.69 91.244C1109.92 93.2027 1106.68 95.99 1103.97 99.606C1101.26 103.071 1099.15 106.989 1097.64 111.358C1096.29 115.577 1095.61 120.021 1095.61 124.692C1095.61 129.513 1096.44 134.033 1098.09 138.252C1099.75 142.471 1102.01 146.162 1104.87 149.326C1107.89 152.49 1111.35 154.976 1115.27 156.784C1119.34 158.592 1123.63 159.496 1128.15 159.496ZM1269.81 185.26C1260.31 185.26 1251.73 183.678 1244.04 180.514C1236.36 177.199 1229.8 172.755 1224.38 167.18C1218.96 161.455 1214.74 154.976 1211.72 147.744C1208.86 140.361 1207.43 132.602 1207.43 124.466C1207.43 113.166 1209.92 102.845 1214.89 93.504C1220.01 84.1627 1227.24 76.7047 1236.58 71.13C1246.08 65.4047 1257.23 62.542 1270.03 62.542C1282.99 62.542 1294.06 65.4047 1303.25 71.13C1312.44 76.7047 1319.45 84.1627 1324.27 93.504C1329.24 102.695 1331.73 112.639 1331.73 123.336C1331.73 125.144 1331.65 127.027 1331.5 128.986C1331.35 130.794 1331.2 132.301 1331.05 133.506H1239.52C1240.12 139.533 1241.86 144.806 1244.72 149.326C1247.73 153.846 1251.5 157.311 1256.02 159.722C1260.69 161.982 1265.66 163.112 1270.94 163.112C1276.96 163.112 1282.61 161.681 1287.89 158.818C1293.31 155.805 1297 151.887 1298.96 147.066L1324.95 154.298C1322.09 160.325 1317.94 165.673 1312.52 170.344C1307.25 175.015 1300.99 178.706 1293.76 181.418C1286.53 183.979 1278.54 185.26 1269.81 185.26ZM1238.84 114.296H1300.77C1300.17 108.269 1298.43 103.071 1295.57 98.702C1292.86 94.182 1289.24 90.7167 1284.72 88.306C1280.2 85.7447 1275.15 84.464 1269.58 84.464C1264.16 84.464 1259.18 85.7447 1254.66 88.306C1250.29 90.7167 1246.68 94.182 1243.82 98.702C1241.1 103.071 1239.45 108.269 1238.84 114.296Z" fill="url(#paint0_linear_135_920)"/>
</g>
<defs>
<filter id="filter0_i_135_920" x="324.396" y="62.542" width="1007.33" height="171.856" filterUnits="userSpaceOnUse" color-interpolation-filters="sRGB">
<feFlood flood-opacity="0" result="BackgroundImageFix"/>
<feBlend mode="normal" in="SourceGraphic" in2="BackgroundImageFix" result="shape"/>
<feColorMatrix in="SourceAlpha" type="matrix" values="0 0 0 0 0 0 0 0 0 0 0 0 0 0 0 0 0 0 127 0" result="hardAlpha"/>
<feOffset dy="1"/>
<feGaussianBlur stdDeviation="2"/>
<feComposite in2="hardAlpha" operator="arithmetic" k2="-1" k3="1"/>
<feColorMatrix type="matrix" values="0 0 0 0 0.203922 0 0 0 0 0.203922 0 0 0 0 0.203922 0 0 0 0.2 0"/>
<feBlend mode="normal" in2="shape" result="effect1_innerShadow_135_920"/>
</filter>
<linearGradient id="paint0_linear_135_920" x1="346.042" y1="85.8276" x2="1182.34" y2="452.503" gradientUnits="userSpaceOnUse">
<stop stop-color="#7C3AED"/>
<stop offset="1" stop-color="#6366F1"/>
</linearGradient>
</defs>
</svg>
